<?xml version="1.0" encoding="utf-8"?>
<!-- Generator: Adobe Illustrator 16.0.0, SVG Export Plug-In . SVG Version: 6.00 Build 0)  -->
<!DOCTYPE svg PUBLIC "-//W3C//DTD SVG 1.1//EN" "http://www.w3.org/Graphics/SVG/1.1/DTD/svg11.dtd">
<svg version="1.1" id="Layer_1" xmlns="http://www.w3.org/2000/svg" xmlns:xlink="http://www.w3.org/1999/xlink" x="0px" y="0px"
	 width="612px" height="792px" viewBox="0 0 612 792" enable-background="new 0 0 612 792" xml:space="preserve">
<title>Artboard 16</title>
<path fill="#00B1FF" d="M509.704,429.078H253.215c-8.45,0-15.3-6.85-15.3-15.3c0-8.449,6.85-15.3,15.3-15.3h256.489
	c33.8,0,61.2-27.4,61.2-61.2c0-33.8-27.4-61.2-61.2-61.2s-61.2,27.4-61.2,61.2c0,8.45-6.85,15.3-15.3,15.3s-15.3-6.85-15.3-15.3
	c0-50.7,41.101-91.8,91.8-91.8c50.7,0,91.8,41.101,91.8,91.8S560.404,429.078,509.704,429.078z"/>
<path fill="#00B1FF" d="M472.984,643.278c-50.7,0-91.8-41.1-91.8-91.8l0,0c0-8.45,6.85-15.3,15.3-15.3s15.3,6.85,15.3,15.3
	c0,33.8,27.4,61.2,61.2,61.2s61.2-27.4,61.2-61.2s-27.4-61.2-61.2-61.2H35.955c-8.45,0-15.3-6.85-15.3-15.3s6.85-15.3,15.3-15.3
	h437.029c50.699,0,91.8,41.101,91.8,91.8C564.784,602.179,523.684,643.278,472.984,643.278z"/>
<path fill="#00B1FF" d="M235.008,352.885l-25.704-14.688l18.36-4.896c5.746-1.69,9.034-7.718,7.344-13.464
	c-1.69-5.746-7.718-9.034-13.464-7.344l-39.168,9.792l-14.688-8.568c1.007-3.161,1.422-6.48,1.224-9.792
	c0.196-2.91-0.221-5.829-1.224-8.568l14.688-8.568l39.168,11.016h2.448c5.154-0.13,9.621-3.604,11.016-8.568
	c1.224-6.12-1.224-12.24-7.344-13.464l-18.36-4.896l25.704-14.688c5.157-2.897,6.989-9.426,4.092-14.583
	c-2.897-5.157-9.426-6.989-14.583-4.092c-0.178,0.1-0.353,0.205-0.525,0.315l-25.704,14.688l4.896-19.584
	c1.561-6.038-2.067-12.197-8.105-13.759c-6.037-1.562-12.197,2.067-13.759,8.104c-0.064,0.251-0.121,0.504-0.168,0.758
	l-9.792,40.392l-13.464,7.344c-4.266-3.82-9.263-6.735-14.688-8.568v-15.912l29.376-28.152c4.896-3.672,4.896-11.016,0-15.912
	c-3.672-4.896-11.016-4.896-15.912,0l-14.688,13.464v-30.6c0-6.084-4.932-11.016-11.016-11.016s-11.016,4.932-11.016,11.016v30.6
	l-13.464-13.464c-4.67-3.667-11.242-3.667-15.912,0c-3.667,4.67-3.667,11.242,0,15.912l29.376,28.152v17.136
	c-5.955,2.063-11.386,5.406-15.912,9.792l-12.24-7.344l-9.792-40.392c-1.561-6.037-7.721-9.666-13.759-8.104
	c-5.746,1.486-9.36,7.167-8.273,13.001l4.896,19.584l-25.704-14.688c-4.896-2.448-12.24-1.224-14.688,3.672
	c-2.448,4.896-1.224,12.24,3.672,14.688l25.704,14.688l-18.36,6.12c-5.329,0.925-8.898,5.994-7.974,11.322
	c0.127,0.736,0.339,1.455,0.63,2.143c1.395,4.963,5.862,8.438,11.016,8.568h2.448l39.168-11.016l13.464,8.568
	c0,2.448-1.224,3.672-1.224,6.12c-0.196,2.91,0.221,5.829,1.224,8.568l-14.688,8.568l-39.168-11.016
	c-6.12-1.224-12.24,1.224-13.464,7.344c-1.224,6.12,1.224,12.24,7.344,13.464l18.36,4.896l-25.704,14.688
	c-4.982,2.689-6.84,8.908-4.151,13.89c0.147,0.273,0.307,0.539,0.479,0.798c2.182,3.234,5.896,5.091,9.792,4.896
	c2.448,0,3.672,0,4.896-1.224l25.704-14.688l-4.896,19.584c-1.362,6.068,2.453,12.092,8.521,13.454
	c0.015,0.003,0.031,0.007,0.046,0.011h2.448c5.154-0.13,9.621-3.605,11.016-8.568l9.792-40.392l14.688-8.568
	c4.266,3.82,9.263,6.735,14.688,8.568v15.912l-29.376,28.152c-4.896,3.672-4.896,11.016,0,15.912
	c1.854,2.162,4.501,3.485,7.344,3.672c2.907,0.077,5.662-1.3,7.344-3.672l14.688-13.464v30.6c0,6.084,4.932,11.017,11.016,11.017
	s11.016-4.933,11.016-11.017v-30.6l14.688,13.464c1.854,2.162,4.502,3.485,7.344,3.672c2.907,0.077,5.661-1.3,7.344-3.672
	c3.667-4.67,3.667-11.242,0-15.912l-29.376-28.152V339.42c4.698-1.228,8.946-3.776,12.24-7.344l15.912,8.568l9.792,40.392
	c1.395,4.963,5.862,8.438,11.016,8.568h2.448c6.074-1.336,9.915-7.343,8.578-13.417c-0.003-0.016-0.007-0.031-0.01-0.047
	l-4.896-19.584l25.704,14.688c1.436,0.974,3.17,1.407,4.896,1.224c3.761-0.352,7.254-2.098,9.792-4.896
	c3.654-3.085,4.116-8.549,1.03-12.204C237.553,354.263,236.357,353.409,235.008,352.885z M132.192,318.613
	c-8.788,0-15.912-7.124-15.912-15.912s7.124-15.912,15.912-15.912s15.912,7.124,15.912,15.912l0,0
	c0.345,8.443-6.22,15.567-14.663,15.912C133.025,318.629,132.608,318.629,132.192,318.613z"/>
</svg>
