<?xml version="1.0" encoding="utf-8"?>
<!-- Generator: Adobe Illustrator 16.0.0, SVG Export Plug-In . SVG Version: 6.00 Build 0)  -->
<!DOCTYPE svg PUBLIC "-//W3C//DTD SVG 1.1//EN" "http://www.w3.org/Graphics/SVG/1.1/DTD/svg11.dtd">
<svg version="1.1" id="Layer_1" xmlns="http://www.w3.org/2000/svg" xmlns:xlink="http://www.w3.org/1999/xlink" x="0px" y="0px"
	 width="612px" height="792px" viewBox="0 0 612 792" enable-background="new 0 0 612 792" xml:space="preserve">
<title>Artboard 33</title>
<path id="_Compound_Path_" fill="#FF8533" d="M489.814,396l108.722-90.393l-144.126-12.24l31.763-134.365l-124.604,69.646
	l-56.181-125.796L247.86,228.648l-123.257-69.615l31.763,134.365L12.24,305.607L120.962,396L12.24,486.393l144.126,12.24
	l-31.763,134.334l124.604-69.615l56.182,125.797l57.406-125.797l124.603,69.615l-31.763-134.365l144.126-12.24L489.814,396z
	 M305.388,554.783c-87.694,0-158.784-71.09-158.784-158.783c0-87.694,71.09-158.783,158.784-158.783S464.172,308.306,464.172,396
	c0.169,87.524-70.646,158.614-158.171,158.783C305.796,554.784,305.592,554.784,305.388,554.783z"/>
<path id="_Path_" fill="#FFE000" d="M305.388,261.635c-74.208,0-134.365,60.157-134.365,134.365
	c0,74.207,60.157,134.364,134.365,134.364S439.753,470.207,439.753,396c0.22-73.987-59.581-134.145-133.568-134.365
	C305.919,261.635,305.654,261.635,305.388,261.635z"/>
</svg>
