<?xml version="1.0" encoding="utf-8"?>
<!-- Generator: Adobe Illustrator 16.0.0, SVG Export Plug-In . SVG Version: 6.00 Build 0)  -->
<!DOCTYPE svg PUBLIC "-//W3C//DTD SVG 1.1//EN" "http://www.w3.org/Graphics/SVG/1.1/DTD/svg11.dtd">
<svg version="1.1" id="Layer_1" xmlns="http://www.w3.org/2000/svg" xmlns:xlink="http://www.w3.org/1999/xlink" x="0px" y="0px"
	 width="612px" height="792px" viewBox="0 0 612 792" enable-background="new 0 0 612 792" xml:space="preserve">
<title>Artboard 13</title>
<path fill="#939393" d="M351.288,130.392c-46.161,0.083-89.452,22.412-116.28,59.976c-11.621-4.895-24.11-7.393-36.72-7.344
	c-43.366,0.283-81.307,29.238-93.024,70.992c-52.117,2.702-92.997,45.733-93.024,97.92c-0.322,53.082,42.448,96.374,95.529,96.696
	c0.389,0.003,0.778,0.003,1.167,0h385.56c58.136-0.003,105.262-47.133,105.259-105.269
	c-0.002-58.132-47.127-105.257-105.259-105.259h-6.12C473.18,174.759,416.431,130.17,351.288,130.392z"/>
<path fill="#CECECE" d="M108.936,279.72c6.186,0.213,12.335,1.033,18.36,2.448v-2.448c0.183-39.393,32.266-71.179,71.659-70.997
	c0.186,0.001,0.371,0.002,0.557,0.005c16.461,0.026,32.427,5.636,45.288,15.912c18.079-42.686,60.134-70.239,106.488-69.768
	c62.398-0.166,113.763,49.035,116.28,111.384c8.693-2.917,17.763-4.565,26.928-4.896c44.615,0,80.784,36.168,80.784,80.784
	c0,44.616-36.169,80.784-80.784,80.784h-385.56c-38.96,0.914-71.285-29.93-72.198-68.89c-0.016-0.7-0.022-1.401-0.018-2.102
	C36.788,312.08,69.08,279.787,108.936,279.72z"/>
<path fill="#00B1FF" d="M248.472,661.608c-2.115,0.188-4.24-0.236-6.12-1.226c-7.425-3.351-10.728-12.085-7.377-19.51
	c0.011-0.024,0.022-0.05,0.033-0.074l73.44-160.344c3.38-7.437,12.146-10.724,19.584-7.344c7.436,3.38,10.724,12.146,7.344,19.584
	l0,0l-73.44,160.344C259.203,658.006,254.127,661.235,248.472,661.608z"/>
<path fill="#00B1FF" d="M346.392,602.856c-2.119,0.318-4.284-0.114-6.119-1.226c-7.039-3.53-9.884-12.1-6.354-19.139
	c0.075-0.15,0.152-0.298,0.233-0.445l29.376-58.752c3.718-7.098,12.484-9.838,19.584-6.12c7.098,3.72,9.838,12.486,6.12,19.584
	l-29.376,58.752C357.213,600.404,351.938,603.282,346.392,602.856z"/>
<path fill="#00B1FF" d="M193.392,602.856c-2.121,0.318-4.286-0.114-6.12-1.226c-7.04-3.53-9.884-12.1-6.353-19.139
	c0.075-0.15,0.153-0.298,0.233-0.445l29.376-58.752c3.718-7.098,12.486-9.838,19.584-6.12c7.098,3.72,9.838,12.486,6.12,19.584
	l-29.376,58.752C204.007,600.195,198.872,602.996,193.392,602.856z"/>
<path fill="#00B1FF" d="M94.248,661.608c-2.115,0.188-4.24-0.236-6.12-1.226c-7.425-3.351-10.728-12.085-7.377-19.51
	c0.011-0.024,0.022-0.05,0.034-0.074l73.44-160.344c3.38-7.437,12.148-10.724,19.584-7.344s10.724,12.146,7.344,19.584
	l-73.44,160.344C105.231,658.235,100.005,661.563,94.248,661.608z"/>
<path fill="#00B1FF" d="M401.472,661.608c-2.114,0.188-4.238-0.236-6.12-1.226c-7.425-3.351-10.728-12.085-7.377-19.51
	c0.012-0.024,0.022-0.05,0.033-0.074l73.44-160.344c3.38-7.437,12.146-10.724,19.584-7.344c7.436,3.38,10.724,12.146,7.344,19.584
	l-73.44,160.344C412.455,658.235,407.229,661.563,401.472,661.608z"/>
</svg>
