<?xml version="1.0" encoding="utf-8"?>
<!-- Generator: Adobe Illustrator 16.0.0, SVG Export Plug-In . SVG Version: 6.00 Build 0)  -->
<!DOCTYPE svg PUBLIC "-//W3C//DTD SVG 1.1//EN" "http://www.w3.org/Graphics/SVG/1.1/DTD/svg11.dtd">
<svg version="1.1" id="Layer_1" xmlns="http://www.w3.org/2000/svg" xmlns:xlink="http://www.w3.org/1999/xlink" x="0px" y="0px"
	 width="612px" height="792px" viewBox="0 0 612 792" enable-background="new 0 0 612 792" xml:space="preserve">
<title>Artboard 4</title>
<path fill="#00B1FF" d="M127.847,666.229c-1.821,0.194-3.653-0.261-5.171-1.285c-5.822-2.416-8.583-9.095-6.167-14.917
	c0.272-0.657,0.606-1.287,0.996-1.883l64.658-129.284c3.211-6.067,10.732-8.383,16.8-5.172c6.067,3.211,8.382,10.732,5.171,16.8l0,0
	l-64.658,129.284C136.904,662.22,133.018,666.229,127.847,666.229z"/>
<path fill="#00B1FF" d="M24.48,666.229c-1.821,0.194-3.653-0.261-5.171-1.285c-5.822-2.416-8.584-9.095-6.168-14.917
	c0.273-0.657,0.606-1.287,0.997-1.883l64.658-129.284c2.416-5.822,9.094-8.584,14.917-6.168c0.657,0.272,1.287,0.606,1.882,0.996
	c5.822,2.416,8.584,9.095,6.168,14.917c-0.273,0.657-0.606,1.287-0.997,1.883L36.047,659.771
	C33.446,662.22,29.59,666.229,24.48,666.229z"/>
<path fill="#00B1FF" d="M24.48,562.801c-1.821,0.194-3.653-0.261-5.171-1.285c-5.822-2.416-8.584-9.095-6.168-14.917
	c0.273-0.657,0.606-1.287,0.997-1.883l51.714-103.428c2.412-5.824,9.088-8.591,14.912-6.18c0.647,0.269,1.269,0.596,1.857,0.978
	c5.822,2.416,8.583,9.095,6.167,14.917c-0.272,0.657-0.606,1.287-0.996,1.883L36.078,556.313
	C33.446,558.914,29.59,562.801,24.48,562.801z"/>
<path fill="#00B1FF" d="M164.046,448.999L116.28,543.4c-2.601,6.456,0,14.229,5.171,16.799c1.519,1.024,3.35,1.479,5.171,1.285
	c5.105,0.045,9.717-3.038,11.628-7.771l51.714-103.429c0-1.285,0-1.285,1.285-2.601h-27.204V448.999z"/>
<polygon fill="#FFCE00" points="573.903,428.313 489.875,428.313 528.646,343.001 379.96,343.001 308.846,498.143 392.904,498.143 
	321.79,666.229 "/>
<path fill="#CECECE" d="M357.185,332.86l6.444-16.02h205.183l-16.767,37.379l-15.486,34.757
	c22.903-13.951,37.093-39.271,37.415-66.764c-0.446-41.829-33.114-75.624-73.547-76.085c-8.303-0.068-16.56,1.288-24.433,4.013
	c-2.597-56.084-49.051-102.785-105.829-102.785c-42.323-0.206-80.779,25.441-98.071,65.406c-11.8-9.586-26.381-14.773-41.385-14.725
	c-36.131,0-65.819,30.712-65.819,66.764v2.686c-5.453-1.645-11.089-2.548-16.768-2.686c-36.35,0-65.818,30.486-65.818,68.092
	c0,37.605,29.468,68.09,65.818,68.09h178.092L357.185,332.86z"/>
<path fill="#00B1FF" d="M267.475,448.999L219.647,543.4c-2.601,6.456,0,14.229,5.171,16.799c1.519,1.024,3.35,1.479,5.171,1.285
	c5.104,0.045,9.717-3.038,11.628-7.771l51.714-103.429c0-1.285,0-1.285,1.285-2.601h-27.142V448.999z"/>
<path fill="#00B1FF" d="M308.846,524h-27.142l-62.057,124.113c-2.601,6.457,0,14.229,5.171,16.8c1.519,1.024,3.35,1.479,5.171,1.285
	c5.104,0.044,9.717-3.039,11.628-7.772l64.658-129.285C308.094,528.104,309.107,526.075,308.846,524z"/>
<path fill="#939393" d="M326.961,397.285H148.532c-36.419,0-65.943-29.523-65.943-65.943s29.524-65.943,65.943-65.943
	c5.68,0.233,11.315,1.105,16.8,2.601v-2.601c0.267-35.962,29.637-64.898,65.599-64.631c0.115,0.001,0.229,0.002,0.344,0.003
	c14.997-0.036,29.569,4.977,41.371,14.229c16.496-38.818,54.796-63.836,96.971-63.342c56.886,0,104.714,45.257,106.029,102.143
	c7.889-2.639,16.161-3.952,24.479-3.886c40.509,0.447,73.238,33.176,73.686,73.685c-0.314,26.597-14.491,51.1-37.394,64.627
	l-6.457,14.229h31.029c43.551-33.578,51.636-96.104,18.058-139.654c-18.846-24.444-47.964-38.767-78.83-38.775h-2.601
	c-19.055-70.81-91.903-112.766-162.714-93.711c-29.15,7.844-54.758,25.388-72.6,49.739c-10.36-3.7-21.316-5.454-32.313-5.171
	c-40.309-0.046-75.949,26.166-87.914,64.658c-48.353,2.996-85.876,43.358-85.343,91.8c0.185,50.623,41.177,91.616,91.8,91.8H315.18
	L326.961,397.285z"/>
</svg>
