<?xml version="1.0" encoding="utf-8"?>
<!-- Generator: Adobe Illustrator 16.0.0, SVG Export Plug-In . SVG Version: 6.00 Build 0)  -->
<!DOCTYPE svg PUBLIC "-//W3C//DTD SVG 1.1//EN" "http://www.w3.org/Graphics/SVG/1.1/DTD/svg11.dtd">
<svg version="1.1" id="Layer_1" xmlns="http://www.w3.org/2000/svg" xmlns:xlink="http://www.w3.org/1999/xlink" x="0px" y="0px"
	 width="612px" height="792px" viewBox="0 0 612 792" enable-background="new 0 0 612 792" xml:space="preserve">
<title>Artboard 14</title>
<circle cx="306" cy="396" r="12.24"/>
<path fill="#939393" d="M351.288,102.24c-46.161,0.083-89.452,22.412-116.28,59.976c-11.621-4.895-24.11-7.393-36.72-7.344
	c-43.366,0.283-81.307,29.238-93.024,70.992c-52.117,2.702-92.997,45.733-93.024,97.92c-0.322,53.082,42.448,96.374,95.529,96.696
	c0.389,0.002,0.778,0.002,1.167,0h385.56c58.136-0.003,105.262-47.134,105.259-105.269
	c-0.002-58.132-47.127-105.257-105.259-105.259h-6.12C473.18,146.606,416.431,102.018,351.288,102.24z"/>
<path fill="#CECECE" d="M108.936,251.568c6.186,0.213,12.335,1.033,18.36,2.448v-2.448c0.183-39.393,32.266-71.18,71.659-70.997
	c0.186,0.001,0.371,0.002,0.557,0.005c16.461,0.026,32.427,5.636,45.288,15.912c18.079-42.686,60.134-70.239,106.488-69.768
	c62.399-0.166,113.763,49.035,116.28,111.384c8.694-2.917,17.763-4.566,26.928-4.896c44.615,0,80.784,36.168,80.784,80.784
	c0,44.616-36.169,80.784-80.784,80.784h-385.56c-38.96,0.914-71.285-29.93-72.198-68.89c-0.016-0.701-0.022-1.401-0.018-2.102
	C36.788,283.928,69.08,251.635,108.936,251.568z"/>
<circle fill="#00B1FF" cx="269.28" cy="469.44" r="24.48"/>
<circle fill="#00B1FF" cx="159.12" cy="640.8" r="24.48"/>
<path fill="#00B1FF" d="M533.052,615.096l-25.704-14.688l18.36-4.896c5.746-1.689,9.034-7.718,7.344-13.464
	c-1.689-5.746-7.718-9.034-13.464-7.344l-39.168,9.792l-14.688-8.568c1.007-3.16,1.422-6.48,1.224-9.792
	c0.196-2.91-0.221-5.829-1.224-8.567L480.42,549l39.168,11.016h2.448c5.154-0.13,9.621-3.604,11.016-8.567
	c1.225-6.12-1.224-12.24-7.344-13.464l-18.36-4.896l25.704-14.688c5.157-2.897,6.989-9.427,4.092-14.584
	c-2.897-5.156-9.426-6.988-14.583-4.091c-0.178,0.1-0.353,0.204-0.524,0.314l-25.704,14.688l4.896-19.584
	c1.143-6.13-2.901-12.026-9.032-13.169c-5.834-1.087-11.515,2.527-13,8.273l-9.792,40.392l-13.464,7.345
	c-4.267-3.82-9.263-6.735-14.688-8.568v-15.912l29.376-28.152c4.896-3.672,4.896-11.016,0-15.911
	c-3.672-4.896-11.016-4.896-15.912,0l-14.688,13.464v-30.601c-0.006-6.084-4.942-11.012-11.026-11.006
	c-6.076,0.005-11.001,4.93-11.006,11.006v30.601l-13.464-13.464c-4.216-4.573-11.339-4.863-15.912-0.648
	c-4.573,4.216-4.863,11.34-0.647,15.912c0.207,0.225,0.423,0.44,0.647,0.647l29.376,28.152v17.136
	c-5.955,2.063-11.387,5.406-15.912,9.792l-12.24-7.344l-9.792-40.392c-1.562-6.038-7.721-9.666-13.759-8.104
	c-5.745,1.485-9.36,7.166-8.272,13l4.896,19.584l-25.704-14.688c-4.896-2.448-12.24-1.225-14.688,3.672
	c-2.448,4.896-1.225,12.24,3.672,14.688l25.704,14.688l-18.36,6.12c-5.328,0.924-8.898,5.993-7.974,11.321
	c0.127,0.736,0.339,1.455,0.63,2.143c1.395,4.963,5.861,8.438,11.016,8.567h2.448l39.168-11.016l13.464,8.568
	c0,2.447-1.224,3.672-1.224,6.12c-0.196,2.91,0.221,5.829,1.224,8.567l-14.688,8.568l-39.169-11.016
	c-6.119-1.225-12.239,1.224-13.464,7.344c-1.224,6.12,1.225,12.24,7.345,13.464l18.359,4.896l-25.704,14.688
	c-4.981,2.689-6.84,8.908-4.15,13.89c0.147,0.273,0.308,0.54,0.479,0.798c2.182,3.234,5.896,5.092,9.792,4.896
	c2.448,0,3.672,0,4.896-1.224l25.704-14.688l-4.896,19.584c-1.362,6.068,2.453,12.092,8.521,13.454
	c0.016,0.003,0.031,0.007,0.047,0.01h2.448c5.153-0.13,9.621-3.604,11.016-8.567l9.792-40.393l14.688-8.567
	c4.267,3.82,9.263,6.734,14.688,8.567v15.912l-29.376,28.152c-4.896,3.672-4.896,11.016,0,15.912
	c1.854,2.161,4.502,3.485,7.344,3.672c2.907,0.077,5.661-1.301,7.344-3.672l14.688-13.465v30.601
	c0.005,6.084,4.941,11.012,11.025,11.006c6.076-0.005,11.001-4.93,11.007-11.006v-30.601l14.688,13.465
	c1.854,2.161,4.502,3.485,7.344,3.672c2.907,0.077,5.662-1.301,7.345-3.672c3.667-4.671,3.667-11.242,0-15.912l-29.376-28.152
	v-15.912c4.698-1.228,8.945-3.776,12.239-7.344l15.912,8.568l9.792,40.392c1.395,4.964,5.862,8.438,11.017,8.568h2.447
	c6.074-1.337,9.915-7.344,8.579-13.418c-0.004-0.016-0.007-0.031-0.011-0.047l-4.896-19.584l25.703,14.688
	c1.437,0.974,3.171,1.407,4.896,1.224c3.761-0.351,7.254-2.098,9.792-4.896c3.654-3.085,4.116-8.549,1.03-12.203
	C535.597,616.475,534.401,615.62,533.052,615.096z M430.236,580.824c-8.788,0-15.912-7.124-15.912-15.912S421.448,549,430.236,549
	c8.787,0,15.912,7.124,15.912,15.912l0,0c0.345,8.442-6.22,15.566-14.663,15.912C431.069,580.841,430.652,580.841,430.236,580.824
	L430.236,580.824z"/>
<path fill="#00B1FF" d="M189.72,567.36l-6.12-12.24c3.478-2.663,6.39-5.991,8.568-9.792c2.357-3.751,4.016-7.898,4.896-12.24h13.464
	c6.76,0,12.24-5.479,12.24-12.24c0-6.76-5.48-12.239-12.24-12.239h-13.464c-1.224-8.568-6.12-15.912-12.24-23.257l7.344-12.239
	c3.718-5.746,2.074-13.418-3.672-17.137c-5.746-3.718-13.418-2.073-17.136,3.673l-7.344,12.239
	c-8.276-2.851-17.195-3.275-25.704-1.224l-6.12-12.24c-3.672-6.12-11.016-8.568-15.912-4.896c-6.12,3.672-8.568,11.016-4.896,15.912
	l6.12,12.239c-3.478,2.663-6.39,5.992-8.568,9.792c-2.357,3.752-4.016,7.898-4.896,12.24H90.576
	c-6.377-0.383-11.857,4.476-12.24,10.852c-0.028,0.463-0.028,0.926,0,1.389c-0.024,4.488,2.296,8.665,6.12,11.016
	c1.224,1.225,3.672,1.225,6.12,2.448h13.464c1.224,8.568,6.12,15.912,12.24,23.256l-7.344,12.24
	c-3.718,5.746-2.074,13.418,3.672,17.136s13.418,2.074,17.136-3.672l0,0l7.344-12.24c8.276,2.851,17.195,3.275,25.704,1.225
	l6.12,12.239c0.916,1.843,2.16,3.502,3.672,4.896c3.712,2.45,8.528,2.45,12.24,0c6.005-3.104,8.357-10.488,5.252-16.494
	C189.964,567.785,189.845,567.57,189.72,567.36z M137.088,540.432c-10.977-6.303-14.767-20.311-8.464-31.288
	c0.347-0.604,0.72-1.19,1.12-1.76c7.578-11.4,22.962-14.499,34.362-6.921c11.202,7.445,14.421,22.467,7.253,33.849
	C162.792,544.104,148.104,547.776,137.088,540.432z"/>
<circle fill="#00B1FF" cx="263.16" cy="591.84" r="12.24"/>
</svg>
