<?xml version="1.0" encoding="utf-8"?>
<!-- Generator: Adobe Illustrator 16.0.0, SVG Export Plug-In . SVG Version: 6.00 Build 0)  -->
<!DOCTYPE svg PUBLIC "-//W3C//DTD SVG 1.1//EN" "http://www.w3.org/Graphics/SVG/1.1/DTD/svg11.dtd">
<svg version="1.1" id="Layer_1" xmlns="http://www.w3.org/2000/svg" xmlns:xlink="http://www.w3.org/1999/xlink" x="0px" y="0px"
	 width="612px" height="792px" viewBox="0 0 612 792" enable-background="new 0 0 612 792" xml:space="preserve">
<title>Artboard 45</title>
<path fill="#939393" d="M306.001,174.802c-113.454,0-205.427,91.973-205.427,205.427c0,113.453,91.973,205.426,205.427,205.426
	c113.452,0,205.426-91.973,205.426-205.426C511.195,266.871,419.358,175.035,306.001,174.802z M306.001,539.994
	c-88.235,0-159.766-71.529-159.766-159.766c0-88.235,71.53-159.766,159.766-159.766c88.236,0,159.766,71.53,159.766,159.766l0,0
	C465.51,468.358,394.131,539.737,306.001,539.994z"/>
<path fill="#939393" d="M260.34,403.059h-57.262c-12.508-0.153-22.573-10.323-22.598-22.83l0,0
	c0.025-12.508,10.09-22.678,22.598-22.831h57.076c12.634-0.078,22.939,10.101,23.017,22.736c0,0.032,0,0.063,0,0.095l0,0
	C283.145,392.827,272.939,403.033,260.34,403.059z"/>
<path fill="#939393" d="M408.926,403.059h-57.077c-12.598-0.025-22.804-10.23-22.831-22.83l0,0
	c0.027-12.598,10.232-22.804,22.831-22.831h57.077c12.596,0.026,22.804,10.231,22.829,22.831l0,0
	C431.729,392.827,421.523,403.033,408.926,403.059z"/>
</svg>
