<?xml version="1.0" encoding="utf-8"?>
<!-- Generator: Adobe Illustrator 16.0.0, SVG Export Plug-In . SVG Version: 6.00 Build 0)  -->
<!DOCTYPE svg PUBLIC "-//W3C//DTD SVG 1.1//EN" "http://www.w3.org/Graphics/SVG/1.1/DTD/svg11.dtd">
<svg version="1.1" id="Layer_1" xmlns="http://www.w3.org/2000/svg" xmlns:xlink="http://www.w3.org/1999/xlink" x="0px" y="0px"
	 width="612px" height="792px" viewBox="0 0 612 792" enable-background="new 0 0 612 792" xml:space="preserve">
<title>Artboard 32</title>
<path fill="#48B9FF" d="M524.209,482.721c-165.057,0-299.36-134.304-299.36-297.953c0.191-27.875,3.955-55.61,11.2-82.528
	C104.161,136.46,12.114,255.553,12.24,391.808c0,163.649,134.303,297.952,299.359,297.952
	c133.713,0.23,251.348-88.285,288.16-216.831C575.176,479.798,549.731,483.096,524.209,482.721z"/>
<path fill="#0071CE" d="M199.696,144.192c-1.624,12.998-2.553,26.072-2.785,39.168c0,180.54,146.88,325.921,327.42,325.921
	c10.739,0.229,21.482-0.241,32.16-1.407c-45.153,94.16-140.372,154.018-244.8,153.887C162.027,661.761,40.3,540.064,40.3,391.777
	C40.05,285.063,102.45,188.138,199.696,144.192 M236.048,102.24C104.161,136.46,12.114,255.553,12.24,391.808
	c0,163.649,134.303,297.952,299.359,297.952c133.713,0.23,251.348-88.285,288.16-216.831c-24.719,6.185-50.072,9.471-75.551,9.792
	c-165.057,0-299.36-134.304-299.36-297.953C224.945,156.887,228.71,129.139,236.048,102.24z"/>
</svg>
