<?xml version="1.0" encoding="utf-8"?>
<!-- Generator: Adobe Illustrator 16.0.0, SVG Export Plug-In . SVG Version: 6.00 Build 0)  -->
<!DOCTYPE svg PUBLIC "-//W3C//DTD SVG 1.1//EN" "http://www.w3.org/Graphics/SVG/1.1/DTD/svg11.dtd">
<svg version="1.1" id="Layer_1" xmlns="http://www.w3.org/2000/svg" xmlns:xlink="http://www.w3.org/1999/xlink" x="0px" y="0px"
	 width="612px" height="792px" viewBox="0 0 612 792" enable-background="new 0 0 612 792" xml:space="preserve">
<title>Artboard 20</title>
<path fill="#C3C3C3" d="M504.625,380.7h-378.89c-8.45,0-15.3-6.85-15.3-15.3c0-8.45,6.85-15.3,15.3-15.3h378.89
	c33.8,0,61.199-27.4,61.199-61.2s-27.399-61.2-61.199-61.2s-61.2,27.4-61.2,61.2c0,8.45-6.851,15.3-15.3,15.3
	c-8.45,0-15.301-6.85-15.301-15.3c0-50.7,41.101-91.8,91.801-91.8c50.699,0,91.8,41.1,91.8,91.8S555.324,380.7,504.625,380.7z"/>
<path fill="#EDEDED" d="M467.904,594.9c-50.699,0-91.8-41.101-91.8-91.801l0,0c0-8.449,6.851-15.3,15.3-15.3
	c8.45,0,15.301,6.851,15.301,15.3c0,33.8,27.399,61.2,61.199,61.2s61.2-27.4,61.2-61.2s-27.4-61.199-61.2-61.199H30.875
	c-8.45,0-15.3-6.851-15.3-15.301c0-8.449,6.85-15.3,15.3-15.3h437.029c50.7,0,91.801,41.101,91.801,91.8
	C559.705,553.8,518.604,594.9,467.904,594.9z"/>
<path fill="#EDEDED" d="M271.269,312.615H69.768c-4.225,0-7.65-3.425-7.65-7.65c0-4.225,3.425-7.65,7.65-7.65h201.501
	c4.225,0,7.65,3.425,7.65,7.65C278.919,309.19,275.494,312.615,271.269,312.615z"/>
<path fill="#C3C3C3" d="M332.469,490.095H130.968c-4.225,0-7.65-3.425-7.65-7.649c0-4.226,3.425-7.65,7.65-7.65h201.501
	c4.226,0,7.65,3.425,7.65,7.65C340.119,486.67,336.694,490.095,332.469,490.095L332.469,490.095z"/>
</svg>
