<?xml version="1.0" encoding="utf-8"?>
<!-- Generator: Adobe Illustrator 16.0.0, SVG Export Plug-In . SVG Version: 6.00 Build 0)  -->
<!DOCTYPE svg PUBLIC "-//W3C//DTD SVG 1.1//EN" "http://www.w3.org/Graphics/SVG/1.1/DTD/svg11.dtd">
<svg version="1.1" id="Layer_1" xmlns="http://www.w3.org/2000/svg" xmlns:xlink="http://www.w3.org/1999/xlink" x="0px" y="0px"
	 width="612px" height="792px" viewBox="0 0 612 792" enable-background="new 0 0 612 792" xml:space="preserve">
<g>
	<path fill="#C04944" d="M306.82,326.674c0.109,0,0.218,0,0.328,0c0.706,0.384,1.496,0.189,2.234,0.257
		c3.468,0.317,5.913,2.249,8.067,4.767c3.715,4.343,6.152,9.501,9.146,14.301c4.963,7.957,9.898,15.934,14.773,23.945
		c5.356,8.803,10.595,17.68,15.969,26.472c7.65,12.516,15.273,25.047,22.903,37.574c2.236,3.673,4.733,7.198,6.528,11.136
		c1.002,2.196,1.125,4.518,1.176,6.863c0.077,0.729-0.167,1.482,0.164,2.192c0,0.109,0,0.219,0,0.328
		c-0.492,1.849-0.295,3.861-1.625,5.512c-1.979,2.455-4.336,4.21-7.496,4.768c-1.646,0.29-3.328,0.245-4.974,0.537
		c-0.546,0-1.093,0-1.639,0c-0.62-0.317-1.286-0.155-1.929-0.155c-19.893-0.011-39.787-0.009-59.68-0.009
		c-23.29,0-46.579-0.002-69.869,0.009c-0.642,0-1.309-0.162-1.93,0.155c-0.438,0-0.874,0-1.312,0
		c-1.318-0.326-2.679-0.322-4.017-0.442c-3.519-0.317-6.076-2.21-8.225-4.797c-1.17-1.409-1.052-3.269-1.525-4.922
		c0-0.219,0-0.438,0-0.655c0.256-0.983,0.256-1.967,0-2.95c0-0.328,0-0.655,0-0.983c0.199-5.055,3.091-8.958,5.578-13.032
		c7.391-12.107,14.814-24.197,22.129-36.352c6.977-11.593,14.05-23.125,21.076-34.688c6.034-9.932,12.063-19.866,18.135-29.775
		c1.71-2.791,3.578-5.449,6.25-7.495c2.196-1.683,4.567-2.479,7.287-2.395C305.169,326.746,306.016,327.031,306.82,326.674z"/>
	<path fill-rule="evenodd" clip-rule="evenodd" fill="#D28281" d="M238.969,465.325c0.372-0.463,0.9-0.322,1.37-0.322
		c23.253-0.005,46.506-0.002,69.759,0.004c0.217,0,0.435,0.032,0.652,0.05c0.238,0.087,0.239,0.177,0.003,0.269
		C286.825,465.325,262.897,465.325,238.969,465.325z"/>
	<path fill-rule="evenodd" clip-rule="evenodd" fill="#D1807F" d="M310.753,465.325c-0.001-0.089-0.002-0.179-0.003-0.269
		c13.043-0.019,26.087-0.042,39.131-0.055c6.932-0.008,13.863-0.002,20.794,0.016c0.573,0.001,1.212-0.216,1.701,0.308
		C351.835,465.325,331.294,465.325,310.753,465.325z"/>
	<path fill-rule="evenodd" clip-rule="evenodd" fill="#C86260" d="M223.891,451.559c0.492,0.983,0.514,1.967,0,2.95
		C223.891,453.525,223.891,452.542,223.891,451.559z"/>
	<path fill-rule="evenodd" clip-rule="evenodd" fill="#CA6865" d="M304.18,326.992c0.006-0.106,0.012-0.212,0.017-0.318
		c0.874,0,1.749,0,2.623,0C305.987,327.172,305.068,326.954,304.18,326.992z"/>
	<path fill-rule="evenodd" clip-rule="evenodd" fill="#DC9E9D" d="M387.826,451.858c0.096-0.012,0.191-0.003,0.283,0.027
		c0,0.766,0,1.53,0,2.295C387.466,453.474,387.895,452.636,387.826,451.858z"/>
	<path fill-rule="evenodd" clip-rule="evenodd" fill="#FFFFFF" d="M295.885,390.573c0-6.876-0.005-13.752,0.001-20.628
		c0.004-4.558,2.418-6.99,6.94-7.005c2.292-0.007,4.584-0.029,6.876,0.008c3.824,0.062,6.385,2.583,6.4,6.382
		c0.061,14.187,0.102,28.373,0.118,42.56c0.005,4.461-2.545,7.03-6.97,7.111c-2.183,0.041-4.367,0.042-6.548,0
		c-4.361-0.087-6.903-2.629-6.924-6.987c-0.034-7.146-0.009-14.294-0.009-21.44C295.809,390.573,295.847,390.573,295.885,390.573z"
		/>
	<path fill-rule="evenodd" clip-rule="evenodd" fill="#FFFFFF" d="M305.969,429.28c5.655-0.007,10.357,4.702,10.312,10.327
		c-0.043,5.545-4.761,10.237-10.279,10.227c-5.638-0.011-10.348-4.749-10.3-10.36C295.749,433.874,300.37,429.287,305.969,429.28z"
		/>
</g>
</svg>
