<?xml version="1.0" encoding="utf-8"?>
<!-- Generator: Adobe Illustrator 16.0.0, SVG Export Plug-In . SVG Version: 6.00 Build 0)  -->
<!DOCTYPE svg PUBLIC "-//W3C//DTD SVG 1.1//EN" "http://www.w3.org/Graphics/SVG/1.1/DTD/svg11.dtd">
<svg version="1.1" id="Layer_1" xmlns="http://www.w3.org/2000/svg" xmlns:xlink="http://www.w3.org/1999/xlink" x="0px" y="0px"
	 width="612px" height="792px" viewBox="0 0 612 792" enable-background="new 0 0 612 792" xml:space="preserve">
<title>Artboard 14</title>
<circle cx="306" cy="396" r="12.24"/>
<path fill="#54B256" d="M351.288,102.24c-46.161,0.083-89.452,22.412-116.28,59.976c-11.621-4.895-24.11-7.393-36.72-7.344
	c-43.366,0.283-81.307,29.238-93.024,70.992c-52.117,2.702-92.997,45.733-93.024,97.92c-0.322,53.082,42.448,96.374,95.529,96.696
	c0.389,0.002,0.778,0.002,1.167,0h385.56c58.136-0.006,105.262-47.134,105.259-105.271
	c-0.002-58.132-47.127-105.257-105.259-105.259h-6.12C473.18,146.606,416.431,102.018,351.288,102.24z"/>
<path fill="#A9DBA9" d="M108.936,251.568c6.186,0.213,12.335,1.033,18.36,2.448v-2.448c0.183-39.393,32.266-71.18,71.659-70.997
	c0.186,0.001,0.371,0.002,0.557,0.005c16.461,0.026,32.427,5.636,45.288,15.912c18.079-42.686,60.134-70.239,106.488-69.768
	c62.396-0.166,113.763,49.035,116.28,111.384c8.691-2.917,17.763-4.566,26.928-4.896c44.615,0,80.784,36.168,80.784,80.784
	c0,44.616-36.169,80.784-80.784,80.784h-385.56c-38.96,0.914-71.285-29.93-72.198-68.89c-0.016-0.701-0.022-1.401-0.018-2.102
	C36.788,283.928,69.08,251.635,108.936,251.568z"/>
<circle fill="#A9DBA9" cx="269.28" cy="469.44" r="24.48"/>
<circle fill="#A9DBA9" cx="159.12" cy="640.8" r="24.48"/>
<path fill="#54B256" d="M533.052,615.096l-25.704-14.688l18.36-4.896c5.746-1.688,9.034-7.718,7.344-13.464
	c-1.688-5.746-7.718-9.034-13.464-7.344l-39.168,9.792l-14.688-8.568c1.007-3.16,1.422-6.479,1.224-9.792
	c0.196-2.909-0.221-5.829-1.224-8.564L480.42,549l39.168,11.016h2.448c5.154-0.13,9.621-3.604,11.016-8.564
	c1.228-6.12-1.224-12.24-7.344-13.464l-18.36-4.896l25.704-14.688c5.157-2.897,6.989-9.43,4.092-14.584
	c-2.896-5.156-9.426-6.988-14.583-4.094c-0.178,0.103-0.353,0.204-0.521,0.314l-25.704,14.688l4.896-19.584
	c1.145-6.133-2.899-12.026-9.03-13.172c-5.834-1.087-11.518,2.527-13,8.273l-9.792,40.392l-13.464,7.348
	c-4.27-3.82-9.266-6.735-14.688-8.568v-15.912l29.376-28.15c4.896-3.674,4.896-11.018,0-15.91c-3.672-4.896-11.016-4.896-15.912,0
	l-14.688,13.464v-30.604c-0.006-6.084-4.942-11.012-11.026-11.006c-6.076,0.005-11.001,4.932-11.006,11.006v30.604l-13.464-13.464
	c-4.216-4.573-11.339-4.863-15.912-0.648c-4.573,4.216-4.863,11.34-0.646,15.912c0.207,0.225,0.425,0.439,0.646,0.646l29.376,28.15
	v17.136c-5.955,2.063-11.387,5.406-15.912,9.792l-12.24-7.344l-9.792-40.392c-1.562-6.038-7.721-9.666-13.759-8.104
	c-5.745,1.485-9.358,7.166-8.271,13l4.896,19.584l-25.704-14.688c-4.896-2.448-12.239-1.228-14.688,3.672
	c-2.448,4.896-1.228,12.24,3.672,14.688l25.704,14.688l-18.36,6.12c-5.328,0.924-8.896,5.993-7.974,11.318
	c0.127,0.736,0.339,1.455,0.63,2.146c1.395,4.963,5.859,8.438,11.016,8.564h2.448l39.168-11.016l13.464,8.568
	c0,2.444-1.224,3.672-1.224,6.12c-0.196,2.907,0.221,5.826,1.224,8.564l-14.688,8.568l-39.169-11.019
	c-6.119-1.225-12.239,1.227-13.466,7.347c-1.225,6.118,1.227,12.237,7.347,13.464l18.356,4.896l-25.703,14.688
	c-4.979,2.688-6.841,8.908-4.148,13.89c0.146,0.273,0.308,0.54,0.479,0.798c2.185,3.234,5.896,5.092,9.792,4.896
	c2.448,0,3.674,0,4.896-1.227l25.704-14.688l-4.896,19.584c-1.359,6.066,2.453,12.092,8.521,13.454
	c0.016,0.003,0.029,0.007,0.047,0.01h2.448c5.15-0.13,9.621-3.604,11.016-8.567l9.792-40.393l14.688-8.567
	c4.268,3.82,9.264,6.734,14.688,8.567v15.912l-29.376,28.15c-4.896,3.672-4.896,11.018,0,15.911
	c1.854,2.161,4.502,3.485,7.344,3.673c2.907,0.076,5.661-1.302,7.345-3.673l14.688-13.465v30.604
	c0.005,6.084,4.941,11.012,11.025,11.006c6.073-0.006,11.001-4.933,11.007-11.006v-30.604l14.688,13.465
	c1.854,2.161,4.502,3.485,7.345,3.673c2.906,0.076,5.661-1.302,7.347-3.673c3.667-4.671,3.667-11.241,0-15.911l-29.376-28.15
	v-15.912c4.697-1.229,8.943-3.776,12.238-7.344l15.911,8.565l9.791,40.395c1.396,4.964,5.862,8.438,11.02,8.565h2.446
	c6.072-1.337,9.914-7.344,8.578-13.418c-0.005-0.016-0.008-0.029-0.012-0.047l-4.896-19.584l25.702,14.688
	c1.438,0.975,3.172,1.405,4.896,1.225c3.761-0.352,7.254-2.098,9.792-4.896c3.654-3.085,4.116-8.55,1.03-12.201
	C535.597,616.475,534.401,615.62,533.052,615.096z M430.236,580.824c-8.788,0-15.912-7.124-15.912-15.912S421.448,549,430.236,549
	c8.787,0,15.912,7.124,15.912,15.912l0,0c0.345,8.439-6.223,15.563-14.663,15.912C431.069,580.841,430.652,580.841,430.236,580.824
	L430.236,580.824z"/>
<path fill="#54B256" d="M189.72,567.36l-6.12-12.24c3.478-2.663,6.39-5.991,8.568-9.792c2.357-3.751,4.016-7.898,4.896-12.24h13.464
	c6.76,0,12.24-5.479,12.24-12.24c0-6.76-5.48-12.236-12.24-12.236h-13.464c-1.224-8.568-6.12-15.912-12.24-23.26l7.344-12.236
	c3.718-5.746,2.074-13.418-3.672-17.14c-5.746-3.718-13.418-2.07-17.136,3.676l-7.344,12.236
	c-8.276-2.851-17.195-3.272-25.704-1.224l-6.12-12.24c-3.672-6.12-11.016-8.565-15.912-4.896c-6.12,3.672-8.568,11.016-4.896,15.912
	l6.12,12.236c-3.478,2.663-6.39,5.992-8.568,9.792c-2.357,3.752-4.016,7.898-4.896,12.24H90.576
	c-6.377-0.383-11.857,4.478-12.24,10.854c-0.028,0.464-0.028,0.927,0,1.39c-0.024,4.487,2.296,8.665,6.12,11.016
	c1.224,1.228,3.672,1.228,6.12,2.448h13.464c1.224,8.568,6.12,15.912,12.24,23.256l-7.344,12.24
	c-3.718,5.746-2.074,13.418,3.672,17.136s13.418,2.074,17.136-3.672l0,0l7.344-12.24c8.276,2.854,17.195,3.275,25.704,1.228
	l6.12,12.236c0.916,1.846,2.16,3.502,3.672,4.896c3.712,2.45,8.528,2.45,12.24,0c6.005-3.104,8.357-10.488,5.252-16.494
	C189.964,567.785,189.845,567.57,189.72,567.36z M137.088,540.432c-10.977-6.303-14.767-20.311-8.464-31.288
	c0.347-0.604,0.72-1.188,1.12-1.76c7.578-11.397,22.962-14.499,34.362-6.921c11.202,7.445,14.421,22.467,7.253,33.85
	C162.792,544.104,148.104,547.776,137.088,540.432z"/>
<circle fill="#54B256" cx="263.16" cy="591.84" r="12.24"/>
<g>
	<path fill="#54B256" d="M398.634,181.268c4.812,3.489,9.656,6.598,14.043,10.253c19.066,15.885,30.829,36.16,35.445,60.509
		c0.965,5.09,1.24,10.318,1.688,15.495c0.241,2.776,0.049,2.866-2.714,2.878c-11.512,0.052-23.024,0.059-34.537,0.143
		c-10.766,0.078-21.53,0.211-32.297,0.379c-1.51,0.023-2.095-0.329-2.182-1.996c-0.545-10.521-5.342-18.696-14.104-24.472
		c-1.621-1.069-1.792-1.77-0.809-3.421c11.384-19.118,22.688-38.285,34.015-57.437C397.554,182.974,397.95,182.365,398.634,181.268z
		"/>
	<path fill="#54B256" d="M296.34,181.605c2.689,4.657,5.215,9.126,7.831,13.54c9.069,15.304,18.147,30.604,27.295,45.859
		c0.961,1.604,0.942,2.334-0.738,3.438c-8.771,5.761-13.561,13.935-14.142,24.455c-0.079,1.431-0.413,2.027-1.97,2.014
		c-22.549-0.196-45.098-0.355-67.646-0.46c-1.913-0.01-2.233-0.831-2.162-2.476c1.209-28.003,11.552-51.96,31.676-71.579
		c5.401-5.266,11.384-9.795,17.856-13.675C294.912,182.381,295.503,182.072,296.34,181.605z"/>
	<path fill="#54B256" d="M398.403,359.023c-31.478,18.895-72.925,17.823-102.009,0c0.318-0.636,0.616-1.302,0.973-1.934
		c10.936-19.376,21.898-38.737,32.781-58.144c0.938-1.672,1.637-1.898,3.38-1.043c9.2,4.52,18.474,4.449,27.714,0.018
		c0.598-0.287,1.197-0.57,2.052-0.978C375.01,317.66,386.677,338.288,398.403,359.023z"/>
	<path fill="#54B256" d="M347.365,290.828c-11.461,0.002-20.481-8.999-20.483-20.438c-0.001-11.465,8.993-20.479,20.438-20.48
		c11.565-0.003,20.496,8.997,20.48,20.639C367.787,281.832,358.724,290.826,347.365,290.828z"/>
</g>
</svg>
