<?xml version="1.0" encoding="utf-8"?>
<!-- Generator: Adobe Illustrator 16.0.0, SVG Export Plug-In . SVG Version: 6.00 Build 0)  -->
<!DOCTYPE svg PUBLIC "-//W3C//DTD SVG 1.1//EN" "http://www.w3.org/Graphics/SVG/1.1/DTD/svg11.dtd">
<svg version="1.1" id="Layer_1" xmlns="http://www.w3.org/2000/svg" xmlns:xlink="http://www.w3.org/1999/xlink" x="0px" y="0px"
	 width="612px" height="792px" viewBox="0 0 612 792" enable-background="new 0 0 612 792" xml:space="preserve">
<path fill-rule="evenodd" clip-rule="evenodd" d="M433.18,177.811c11.836,8.584,23.751,16.232,34.545,25.225
	c46.903,39.076,75.839,88.951,87.194,148.85c2.374,12.521,3.051,25.384,4.154,38.12c0.592,6.828,0.118,7.049-6.676,7.079
	c-28.32,0.127-56.642,0.145-84.962,0.35c-26.484,0.193-52.968,0.52-79.449,0.932c-3.715,0.058-5.153-0.809-5.366-4.911
	c-1.343-25.881-13.142-45.992-34.693-60.201c-3.989-2.63-4.41-4.35-1.99-8.415c28.005-47.032,55.812-94.181,83.678-141.295
	C430.522,182.009,431.496,180.513,433.18,177.811z"/>
<path fill-rule="evenodd" clip-rule="evenodd" d="M181.536,178.643c6.617,11.455,12.829,22.449,19.265,33.309
	c22.311,37.647,44.641,75.284,67.147,112.814c2.365,3.943,2.318,5.743-1.817,8.458c-21.577,14.171-33.358,34.277-34.787,60.161
	c-0.194,3.517-1.016,4.984-4.848,4.951c-55.469-0.48-110.938-0.875-166.409-1.131c-4.705-0.021-5.492-2.044-5.318-6.088
	c2.974-68.888,28.418-127.821,77.921-176.086c13.287-12.954,28.006-24.096,43.927-33.639
	C178.022,180.55,179.477,179.791,181.536,178.643z"/>
<path fill-rule="evenodd" clip-rule="evenodd" d="M432.612,615.091c-77.433,46.479-179.394,43.847-250.943,0.001
	c0.784-1.565,1.516-3.203,2.393-4.758c26.903-47.666,53.872-95.294,80.64-143.034c2.305-4.111,4.026-4.67,8.315-2.563
	c22.631,11.117,45.443,10.945,68.176,0.042c1.47-0.705,2.943-1.403,5.047-2.404C375.062,513.336,403.764,564.082,432.612,615.091z"
	/>
<path fill-rule="evenodd" clip-rule="evenodd" d="M307.059,447.331c-28.194,0.005-50.385-22.137-50.39-50.278
	c-0.004-28.205,22.124-50.379,50.279-50.384c28.452-0.005,50.419,22.132,50.383,50.772
	C357.296,425.199,334.999,447.326,307.059,447.331z"/>
</svg>
