<?xml version="1.0" encoding="utf-8"?>
<!-- Generator: Adobe Illustrator 16.0.0, SVG Export Plug-In . SVG Version: 6.00 Build 0)  -->
<!DOCTYPE svg PUBLIC "-//W3C//DTD SVG 1.1//EN" "http://www.w3.org/Graphics/SVG/1.1/DTD/svg11.dtd">
<svg version="1.1" id="Layer_1" xmlns="http://www.w3.org/2000/svg" xmlns:xlink="http://www.w3.org/1999/xlink" x="0px" y="0px"
	 width="612px" height="792px" viewBox="0 0 612 792" enable-background="new 0 0 612 792" xml:space="preserve">
<path fill="#FFFFFF" stroke="#EFEFEF" stroke-width="2" stroke-miterlimit="10" d="M599.64,314.354l-71.582-58.833l70.785-58.852
	l-93.836-7.969l20.681-87.482l-81.128,45.345L407.982,64.66l-37.455,81.903l-80.25-45.325l20.68,87.482l-93.837,7.949l70.786,58.852
	l-70.786,58.853l93.837,7.969l-20.68,87.462l81.126-45.326l36.578,81.904l37.375-81.904l81.126,45.326l-20.681-87.481
	L599.64,314.354z M408.381,358.901c-0.134,0.001-0.267,0.001-0.398,0c-57.097,0-103.38-46.285-103.38-103.379
	c0-57.095,46.284-103.38,103.38-103.38c57.095,0,103.38,46.285,103.38,103.38C511.472,312.507,465.365,358.792,408.381,358.901z"/>
<path fill="#FFFFFF" stroke="#EFEFEF" stroke-width="2" stroke-miterlimit="10" d="M408.5,169.04c-0.173,0-0.346,0-0.519,0
	c-48.315,0-87.481,39.167-87.481,87.482c0,48.314,39.166,87.481,87.481,87.481c48.313,0,87.48-39.167,87.48-87.481
	C495.606,208.351,456.672,169.184,408.5,169.04z"/>
<title>Artboard 21</title>
<path fill="#EFEFEF" d="M82.406,322.56h13.403c5.707-9.033,12.591-17.265,20.471-24.48H82.62
	c-25.348-0.337-45.623-21.159-45.285-46.507c0.338-25.348,21.159-45.623,46.507-45.285c3.466,0.046,6.916,0.485,10.284,1.308
	c0-0.52,0-1.01,0-1.5c0.492-25.345,21.437-45.493,46.782-45.001c10.052,0.195,19.762,3.685,27.638,9.934
	c16.603-37.561,60.511-54.551,98.072-37.948c25.799,11.404,42.924,36.423,44.218,64.601c5.517-1.989,11.332-3.024,17.197-3.06
	c15.104,0.086,29.395,6.866,39.015,18.513c10.802,1.001,21.48,3.05,31.886,6.12c-10.788-28.618-37.677-47.982-68.236-49.144
	c-17.156-51.927-73.16-80.115-125.087-62.959c-18.137,5.993-34.154,17.103-46.12,31.992c-35.481-10.47-73.012,8.315-85.895,42.993
	c-38.706,3.569-67.189,37.84-63.62,76.545C13.396,295.794,45.157,323.805,82.406,322.56z"/>
<path fill="#EFEFEF" d="M432.47,493.92c39.78-0.132,72.546,31.214,74.175,70.962c26.938-9.334,56.346,4.938,65.68,31.877
	c9.333,26.938-4.938,56.345-31.878,65.68c-5.331,1.847-10.932,2.808-16.572,2.844H278.246
	c-25.348-0.338-45.622-21.159-45.285-46.507c0.337-25.35,21.159-45.623,46.507-45.285c3.466,0.046,6.916,0.482,10.284,1.308
	c0-0.489,0-1.01,0-1.5c0.388-25.347,21.25-45.579,46.598-45.188c10.235,0.154,20.125,3.729,28.099,10.152
	C376.318,511.295,403.008,493.898,432.47,493.92 M432.47,469.44c-29.977-0.02-58.345,13.553-77.143,36.901
	c-35.48-10.471-73.011,8.314-85.894,42.993c-38.706,3.569-67.189,37.84-63.62,76.545c3.422,37.112,35.184,65.122,72.433,63.878
	h245.626c42.062-0.219,75.985-34.494,75.767-76.558c-0.212-40.732-32.435-74.089-73.135-75.708
	C513.332,496.747,475.293,469.217,432.47,469.44z"/>
<path fill="#FFFFFF" d="M252.419,527.917c18.663-33.743,55.896-52.831,94.188-48.287c49.104-47.414,127.346-46.045,174.761,3.061
	c8.881,9.194,16.28,19.716,21.936,31.183c35.653-27.046,42.631-77.874,15.584-113.527c-21.27-28.039-58.206-39.141-91.41-27.478
	c-2.897-64.458-57.503-114.363-121.962-111.464c-44.362,1.995-83.757,28.967-101.663,69.604
	c-30.766-25.115-76.065-20.534-101.18,10.231c-10.344,12.671-16.059,28.491-16.202,44.848c0,0.796,0,1.561,0,2.356
	c-38.65-9.843-77.961,13.51-87.804,52.16c-9.843,38.65,13.51,77.964,52.16,87.807c5.79,1.475,11.739,2.225,17.713,2.231h136.629
	C247.584,529.722,249.879,528.62,252.419,527.917z"/>
<path fill="#FFFFFF" d="M82.406,298.08h33.874c29.451-27.32,70.559-38.205,109.67-29.04c31.539-36.003,77.077-56.647,124.938-56.641
	c5.446,0,10.832,0.336,16.156,0.857c-9.62-11.646-23.909-18.427-39.015-18.513c-5.864,0.037-11.683,1.072-17.197,3.06
	c-1.883-41.023-36.666-72.753-77.689-70.87c-28.177,1.293-53.197,18.418-64.601,44.218c-19.738-15.907-48.634-12.801-64.541,6.937
	c-6.398,7.939-9.971,17.783-10.154,27.978c0,0.52,0,1.01,0,1.5c-24.643-5.945-49.439,9.212-55.385,33.855
	c-5.945,24.643,9.212,49.439,33.855,55.384C75.625,297.602,79.007,298.03,82.406,298.08z"/>
<path fill="#EFEFEF" d="M245.167,530.64H108.538c-39.917,0.121-72.375-32.141-72.495-72.058
	c-0.121-39.918,32.141-72.375,72.059-72.496c6.25-0.019,12.475,0.773,18.521,2.355c0-0.796,0-1.561,0-2.356
	c0.345-39.713,32.819-71.627,72.533-71.281c16.357,0.142,32.177,5.857,44.849,16.202c26.052-59.031,95.026-85.765,154.056-59.712
	c40.583,17.911,67.521,57.26,69.538,101.573c42.272-14.736,88.488,7.587,103.227,49.857c11.542,33.11,0.484,69.89-27.397,91.146
	c0.186,0.367,0.43,0.704,0.611,1.071c8.812,1.77,17.347,4.724,25.367,8.78c41.017-41.531,40.598-108.45-0.937-149.469
	c-19.71-19.464-46.271-30.413-73.974-30.49c-2.143,0-4.284,0.062-6.426,0.184c-19.057-75.821-95.967-121.84-171.788-102.785
	c-33.086,8.314-62.056,28.298-81.58,56.273c-49.354-20.087-105.648,3.638-125.735,52.993c-1.496,3.674-2.763,7.437-3.795,11.267
	c-53.379,2.84-94.349,48.414-91.509,101.794c2.697,50.699,44.112,90.697,94.875,91.629h100.368
	C218.904,544.227,231.326,535.841,245.167,530.64z"/>
</svg>
